<svg xmlns="http://www.w3.org/2000/svg" xmlns:xlink="http://www.w3.org/1999/xlink" width="126" zoomAndPan="magnify" viewBox="0 0 94.5 54" height="72" preserveAspectRatio="xMidYMid meet" version="1.0"><defs><g/><clipPath id="fca2bce079"><path d="M 19.464844 2.679688 L 68.800781 2.679688 L 68.800781 29 L 19.464844 29 Z M 19.464844 2.679688 " clip-rule="nonzero"/></clipPath><clipPath id="dc82b3e1f2"><path d="M 19.464844 9 L 68 9 L 68 41 L 19.464844 41 Z M 19.464844 9 " clip-rule="nonzero"/></clipPath><clipPath id="b13433df9e"><path d="M 24 30 L 68.800781 30 L 68.800781 48 L 24 48 Z M 24 30 " clip-rule="nonzero"/></clipPath></defs><g clip-path="url(#fca2bce079)"><path fill="#ffffff" d="M 21.558594 27.167969 C 21.558594 14.800781 31.585938 4.769531 43.953125 4.769531 C 49.421875 4.769531 54.429688 6.730469 58.316406 9.984375 C 61.761719 13.183594 63.574219 16.457031 63.761719 19.800781 C 62.472656 15.886719 60.535156 13.148438 57.949219 11.59375 C 55.300781 15.378906 55.578125 18.96875 58.789062 22.363281 C 60.558594 23.925781 63.082031 25.53125 66.351562 27.175781 C 67.011719 27.507812 67.703125 27.84375 68.421875 28.175781 C 68.433594 27.839844 68.441406 27.503906 68.441406 27.167969 C 68.441406 13.644531 57.476562 2.679688 43.953125 2.679688 C 30.433594 2.679688 19.46875 13.648438 19.46875 27.167969 C 19.46875 27.679688 19.480469 28.191406 19.511719 28.691406 L 21.589844 28.421875 C 21.570312 28.007812 21.558594 27.589844 21.558594 27.167969 Z M 21.558594 27.167969 " fill-opacity="1" fill-rule="evenodd"/></g><g clip-path="url(#dc82b3e1f2)"><path fill="#76a629" d="M 68 28.859375 C 59.632812 27.246094 51.640625 26.582031 44.023438 26.859375 C 44.097656 24.511719 43.761719 22.726562 43.011719 21.503906 C 42.082031 20.09375 40.9375 18.261719 39.570312 16.015625 C 41.8125 17.1875 43.386719 19.398438 44.308594 22.648438 C 44.835938 18.503906 43.226562 15.496094 39.476562 13.628906 C 35.933594 12.011719 33.859375 10.496094 33.253906 9.074219 C 32.996094 12.789062 33.542969 16.015625 34.898438 18.761719 C 35.753906 20.253906 37.289062 21.246094 39.5 21.738281 C 40.457031 21.9375 41.332031 22.292969 42.132812 22.804688 C 43.007812 23.453125 43.355469 24.816406 43.171875 26.894531 C 34.949219 27.273438 27.167969 28.761719 19.824219 31.359375 C 20.414062 34.785156 21.71875 37.96875 23.574219 40.75 C 36.199219 33.257812 51.007812 29.292969 68 28.859375 Z M 51.484375 13.847656 C 51.914062 19.078125 50.066406 22.4375 45.941406 23.921875 C 47.046875 23.179688 48.175781 21.777344 49.332031 19.714844 C 47.675781 21.390625 46.222656 22.4375 44.972656 22.855469 C 44.898438 17.914062 47.070312 14.914062 51.484375 13.847656 Z M 51.484375 13.847656 " fill-opacity="1" fill-rule="evenodd"/></g><g clip-path="url(#b13433df9e)"><path fill="#ffffff" d="M 68.164062 30.886719 C 52.734375 30.867188 38.277344 34.714844 24.796875 42.425781 C 26.414062 44.449219 28.34375 46.214844 30.515625 47.644531 C 39.902344 42.03125 51.734375 38.761719 66.007812 37.832031 C 67.050781 35.671875 67.789062 33.339844 68.164062 30.886719 Z M 68.164062 30.886719 " fill-opacity="1" fill-rule="evenodd"/></g><path fill="#76a629" d="M 64.859375 39.929688 C 53.449219 40.671875 42.726562 43.671875 32.691406 48.917969 C 36.0625 50.667969 39.894531 51.660156 43.953125 51.660156 C 52.804688 51.660156 60.554688 46.964844 64.859375 39.929688 Z M 64.859375 39.929688 " fill-opacity="1" fill-rule="evenodd"/><g fill="#7aa619" fill-opacity="1"><g transform="translate(35.998209, 34.24091)"><g><path d="M 0.546875 0.015625 C 0.472656 0.015625 0.410156 0.00390625 0.359375 -0.015625 C 0.304688 -0.046875 0.265625 -0.0820312 0.234375 -0.125 C 0.210938 -0.175781 0.203125 -0.234375 0.203125 -0.296875 C 0.203125 -0.359375 0.210938 -0.414062 0.234375 -0.46875 C 0.265625 -0.519531 0.304688 -0.554688 0.359375 -0.578125 C 0.410156 -0.609375 0.472656 -0.625 0.546875 -0.625 C 0.609375 -0.625 0.664062 -0.609375 0.71875 -0.578125 C 0.769531 -0.554688 0.804688 -0.519531 0.828125 -0.46875 C 0.859375 -0.414062 0.875 -0.359375 0.875 -0.296875 C 0.875 -0.210938 0.84375 -0.140625 0.78125 -0.078125 C 0.71875 -0.015625 0.640625 0.015625 0.546875 0.015625 Z M 0.546875 0.015625 "/></g></g></g></svg>